<mxfile host="Electron" modified="2023-04-10T12:21:04.985Z" agent="Mozilla/5.0 (Macintosh; Intel Mac OS X 10_15_7) AppleWebKit/537.36 (KHTML, like Gecko) draw.io/21.1.2 Chrome/106.0.5249.199 Electron/21.4.3 Safari/537.36" etag="S7TQ9EtTdxEeNBX0M6kO" version="21.1.2" type="device">
  <diagram name="Page-1" id="J2dI-G4Xx_uCDxFqBDNp">
    <mxGraphModel dx="305" dy="284" grid="1" gridSize="10" guides="1" tooltips="1" connect="1" arrows="1" fold="1" page="1" pageScale="1" pageWidth="827" pageHeight="1169" math="0" shadow="0">
      <root>
        <mxCell id="0" />
        <mxCell id="1" parent="0" />
        <mxCell id="BzpWnOmyiMtVF2IAb3Cy-1" value="Selection Sort" style="text;html=1;align=center;verticalAlign=middle;resizable=0;points=[];autosize=1;strokeColor=none;fillColor=none;fontSize=24;fontStyle=1" vertex="1" parent="1">
          <mxGeometry x="226" y="210" width="180" height="40" as="geometry" />
        </mxCell>
        <mxCell id="BzpWnOmyiMtVF2IAb3Cy-2" value="arr[0]" style="text;html=1;align=center;verticalAlign=middle;resizable=0;points=[];autosize=1;strokeColor=none;fillColor=none;" vertex="1" parent="1">
          <mxGeometry x="236" y="320" width="50" height="30" as="geometry" />
        </mxCell>
        <mxCell id="BzpWnOmyiMtVF2IAb3Cy-3" value="-20000" style="whiteSpace=wrap;html=1;aspect=fixed;fillColor=#FFFF00;" vertex="1" parent="1">
          <mxGeometry x="241" y="280" width="40" height="40" as="geometry" />
        </mxCell>
        <mxCell id="BzpWnOmyiMtVF2IAb3Cy-4" value="1" style="whiteSpace=wrap;html=1;aspect=fixed;" vertex="1" parent="1">
          <mxGeometry x="281" y="280" width="40" height="40" as="geometry" />
        </mxCell>
        <mxCell id="BzpWnOmyiMtVF2IAb3Cy-5" value="4" style="whiteSpace=wrap;html=1;aspect=fixed;" vertex="1" parent="1">
          <mxGeometry x="321" y="280" width="40" height="40" as="geometry" />
        </mxCell>
        <mxCell id="BzpWnOmyiMtVF2IAb3Cy-6" value="-22000" style="whiteSpace=wrap;html=1;aspect=fixed;" vertex="1" parent="1">
          <mxGeometry x="361" y="280" width="40" height="40" as="geometry" />
        </mxCell>
        <mxCell id="BzpWnOmyiMtVF2IAb3Cy-7" value="arr[1]" style="text;html=1;align=center;verticalAlign=middle;resizable=0;points=[];autosize=1;strokeColor=none;fillColor=none;" vertex="1" parent="1">
          <mxGeometry x="276" y="320" width="50" height="30" as="geometry" />
        </mxCell>
        <mxCell id="BzpWnOmyiMtVF2IAb3Cy-8" value="arr[2]" style="text;html=1;align=center;verticalAlign=middle;resizable=0;points=[];autosize=1;strokeColor=none;fillColor=none;" vertex="1" parent="1">
          <mxGeometry x="316" y="320" width="50" height="30" as="geometry" />
        </mxCell>
        <mxCell id="BzpWnOmyiMtVF2IAb3Cy-9" value="arr[3]" style="text;html=1;align=center;verticalAlign=middle;resizable=0;points=[];autosize=1;strokeColor=none;fillColor=none;" vertex="1" parent="1">
          <mxGeometry x="356" y="320" width="50" height="30" as="geometry" />
        </mxCell>
        <mxCell id="BzpWnOmyiMtVF2IAb3Cy-12" value="Test cases for SelectionSort:&lt;br&gt;&lt;ul&gt;&lt;li&gt;Normal case: {1,2,3,4}, {2,1,4,3}, {2,4,6,3,3,1,5}&lt;/li&gt;&lt;li&gt;Edge case: {0,0,0,0}, {-2,-1,-4,-3}, {-2,1,4,-3}&lt;/li&gt;&lt;li&gt;Boundary case: {20000,1,4,32767}, {-20000,1,4,-32768}, {20000,1,4,-32768}, {-20000,1,4,32767}&lt;/li&gt;&lt;/ul&gt;" style="text;html=1;align=left;verticalAlign=middle;resizable=0;points=[];autosize=1;strokeColor=none;fillColor=none;" vertex="1" parent="1">
          <mxGeometry x="80" y="880" width="580" height="100" as="geometry" />
        </mxCell>
        <mxCell id="BzpWnOmyiMtVF2IAb3Cy-13" value="arr starting address in RAM[1]&lt;br&gt;arr size in RAM[2]&lt;br&gt;put true in RAM[0] once finished sorting" style="text;html=1;align=left;verticalAlign=middle;resizable=0;points=[];autosize=1;strokeColor=none;fillColor=none;" vertex="1" parent="1">
          <mxGeometry x="80" y="970" width="230" height="60" as="geometry" />
        </mxCell>
        <mxCell id="BzpWnOmyiMtVF2IAb3Cy-14" value="arr[0]" style="text;html=1;align=center;verticalAlign=middle;resizable=0;points=[];autosize=1;strokeColor=none;fillColor=none;" vertex="1" parent="1">
          <mxGeometry x="236" y="440" width="50" height="30" as="geometry" />
        </mxCell>
        <mxCell id="BzpWnOmyiMtVF2IAb3Cy-15" value="-22000" style="whiteSpace=wrap;html=1;aspect=fixed;fillColor=#00FF00;" vertex="1" parent="1">
          <mxGeometry x="241" y="400" width="40" height="40" as="geometry" />
        </mxCell>
        <mxCell id="BzpWnOmyiMtVF2IAb3Cy-16" value="1" style="whiteSpace=wrap;html=1;aspect=fixed;fillColor=#FFFF00;" vertex="1" parent="1">
          <mxGeometry x="281" y="400" width="40" height="40" as="geometry" />
        </mxCell>
        <mxCell id="BzpWnOmyiMtVF2IAb3Cy-17" value="4" style="whiteSpace=wrap;html=1;aspect=fixed;" vertex="1" parent="1">
          <mxGeometry x="321" y="400" width="40" height="40" as="geometry" />
        </mxCell>
        <mxCell id="BzpWnOmyiMtVF2IAb3Cy-18" value="-20000" style="whiteSpace=wrap;html=1;aspect=fixed;" vertex="1" parent="1">
          <mxGeometry x="361" y="400" width="40" height="40" as="geometry" />
        </mxCell>
        <mxCell id="BzpWnOmyiMtVF2IAb3Cy-19" value="arr[1]" style="text;html=1;align=center;verticalAlign=middle;resizable=0;points=[];autosize=1;strokeColor=none;fillColor=none;" vertex="1" parent="1">
          <mxGeometry x="276" y="440" width="50" height="30" as="geometry" />
        </mxCell>
        <mxCell id="BzpWnOmyiMtVF2IAb3Cy-20" value="arr[2]" style="text;html=1;align=center;verticalAlign=middle;resizable=0;points=[];autosize=1;strokeColor=none;fillColor=none;" vertex="1" parent="1">
          <mxGeometry x="316" y="440" width="50" height="30" as="geometry" />
        </mxCell>
        <mxCell id="BzpWnOmyiMtVF2IAb3Cy-21" value="arr[3]" style="text;html=1;align=center;verticalAlign=middle;resizable=0;points=[];autosize=1;strokeColor=none;fillColor=none;" vertex="1" parent="1">
          <mxGeometry x="356" y="440" width="50" height="30" as="geometry" />
        </mxCell>
        <mxCell id="BzpWnOmyiMtVF2IAb3Cy-22" value="" style="endArrow=classic;startArrow=classic;html=1;rounded=0;exitX=0.5;exitY=0;exitDx=0;exitDy=0;entryX=0.5;entryY=0;entryDx=0;entryDy=0;" edge="1" parent="1" source="BzpWnOmyiMtVF2IAb3Cy-15" target="BzpWnOmyiMtVF2IAb3Cy-18">
          <mxGeometry width="50" height="50" relative="1" as="geometry">
            <mxPoint x="370" y="400" as="sourcePoint" />
            <mxPoint x="420" y="350" as="targetPoint" />
            <Array as="points">
              <mxPoint x="261" y="370" />
              <mxPoint x="381" y="370" />
            </Array>
          </mxGeometry>
        </mxCell>
        <mxCell id="BzpWnOmyiMtVF2IAb3Cy-23" value="arr[0]" style="text;html=1;align=center;verticalAlign=middle;resizable=0;points=[];autosize=1;strokeColor=none;fillColor=none;" vertex="1" parent="1">
          <mxGeometry x="236" y="560" width="50" height="30" as="geometry" />
        </mxCell>
        <mxCell id="BzpWnOmyiMtVF2IAb3Cy-24" value="-22000" style="whiteSpace=wrap;html=1;aspect=fixed;fillColor=#00FF00;" vertex="1" parent="1">
          <mxGeometry x="241" y="520" width="40" height="40" as="geometry" />
        </mxCell>
        <mxCell id="BzpWnOmyiMtVF2IAb3Cy-25" value="-20000" style="whiteSpace=wrap;html=1;aspect=fixed;fillColor=#00FF00;" vertex="1" parent="1">
          <mxGeometry x="281" y="520" width="40" height="40" as="geometry" />
        </mxCell>
        <mxCell id="BzpWnOmyiMtVF2IAb3Cy-26" value="4" style="whiteSpace=wrap;html=1;aspect=fixed;fillColor=#FFFF00;" vertex="1" parent="1">
          <mxGeometry x="321" y="520" width="40" height="40" as="geometry" />
        </mxCell>
        <mxCell id="BzpWnOmyiMtVF2IAb3Cy-27" value="1" style="whiteSpace=wrap;html=1;aspect=fixed;" vertex="1" parent="1">
          <mxGeometry x="361" y="520" width="40" height="40" as="geometry" />
        </mxCell>
        <mxCell id="BzpWnOmyiMtVF2IAb3Cy-28" value="arr[1]" style="text;html=1;align=center;verticalAlign=middle;resizable=0;points=[];autosize=1;strokeColor=none;fillColor=none;" vertex="1" parent="1">
          <mxGeometry x="276" y="560" width="50" height="30" as="geometry" />
        </mxCell>
        <mxCell id="BzpWnOmyiMtVF2IAb3Cy-29" value="arr[2]" style="text;html=1;align=center;verticalAlign=middle;resizable=0;points=[];autosize=1;strokeColor=none;fillColor=none;" vertex="1" parent="1">
          <mxGeometry x="316" y="560" width="50" height="30" as="geometry" />
        </mxCell>
        <mxCell id="BzpWnOmyiMtVF2IAb3Cy-30" value="arr[3]" style="text;html=1;align=center;verticalAlign=middle;resizable=0;points=[];autosize=1;strokeColor=none;fillColor=none;" vertex="1" parent="1">
          <mxGeometry x="356" y="560" width="50" height="30" as="geometry" />
        </mxCell>
        <mxCell id="BzpWnOmyiMtVF2IAb3Cy-31" value="" style="endArrow=classic;startArrow=classic;html=1;rounded=0;exitX=0.5;exitY=0;exitDx=0;exitDy=0;entryX=0.5;entryY=0;entryDx=0;entryDy=0;" edge="1" parent="1" target="BzpWnOmyiMtVF2IAb3Cy-27">
          <mxGeometry width="50" height="50" relative="1" as="geometry">
            <mxPoint x="300" y="520" as="sourcePoint" />
            <mxPoint x="420" y="520" as="targetPoint" />
            <Array as="points">
              <mxPoint x="300" y="490" />
              <mxPoint x="381" y="490" />
            </Array>
          </mxGeometry>
        </mxCell>
        <mxCell id="BzpWnOmyiMtVF2IAb3Cy-34" value="arr[0]" style="text;html=1;align=center;verticalAlign=middle;resizable=0;points=[];autosize=1;strokeColor=none;fillColor=none;" vertex="1" parent="1">
          <mxGeometry x="236" y="680" width="50" height="30" as="geometry" />
        </mxCell>
        <mxCell id="BzpWnOmyiMtVF2IAb3Cy-35" value="-22000" style="whiteSpace=wrap;html=1;aspect=fixed;fillColor=#00FF00;" vertex="1" parent="1">
          <mxGeometry x="241" y="640" width="40" height="40" as="geometry" />
        </mxCell>
        <mxCell id="BzpWnOmyiMtVF2IAb3Cy-36" value="-20000" style="whiteSpace=wrap;html=1;aspect=fixed;fillColor=#00FF00;" vertex="1" parent="1">
          <mxGeometry x="281" y="640" width="40" height="40" as="geometry" />
        </mxCell>
        <mxCell id="BzpWnOmyiMtVF2IAb3Cy-37" value="1" style="whiteSpace=wrap;html=1;aspect=fixed;fillColor=#00FF00;" vertex="1" parent="1">
          <mxGeometry x="321" y="640" width="40" height="40" as="geometry" />
        </mxCell>
        <mxCell id="BzpWnOmyiMtVF2IAb3Cy-38" value="4" style="whiteSpace=wrap;html=1;aspect=fixed;fillColor=#FFFF00;" vertex="1" parent="1">
          <mxGeometry x="361" y="640" width="40" height="40" as="geometry" />
        </mxCell>
        <mxCell id="BzpWnOmyiMtVF2IAb3Cy-39" value="arr[1]" style="text;html=1;align=center;verticalAlign=middle;resizable=0;points=[];autosize=1;strokeColor=none;fillColor=none;" vertex="1" parent="1">
          <mxGeometry x="276" y="680" width="50" height="30" as="geometry" />
        </mxCell>
        <mxCell id="BzpWnOmyiMtVF2IAb3Cy-40" value="arr[2]" style="text;html=1;align=center;verticalAlign=middle;resizable=0;points=[];autosize=1;strokeColor=none;fillColor=none;" vertex="1" parent="1">
          <mxGeometry x="316" y="680" width="50" height="30" as="geometry" />
        </mxCell>
        <mxCell id="BzpWnOmyiMtVF2IAb3Cy-41" value="arr[3]" style="text;html=1;align=center;verticalAlign=middle;resizable=0;points=[];autosize=1;strokeColor=none;fillColor=none;" vertex="1" parent="1">
          <mxGeometry x="356" y="680" width="50" height="30" as="geometry" />
        </mxCell>
        <mxCell id="BzpWnOmyiMtVF2IAb3Cy-42" value="" style="endArrow=classic;startArrow=classic;html=1;rounded=0;exitX=0.5;exitY=0;exitDx=0;exitDy=0;entryX=0.5;entryY=0;entryDx=0;entryDy=0;" edge="1" parent="1" target="BzpWnOmyiMtVF2IAb3Cy-38">
          <mxGeometry width="50" height="50" relative="1" as="geometry">
            <mxPoint x="340.5" y="640" as="sourcePoint" />
            <mxPoint x="421.5" y="640" as="targetPoint" />
            <Array as="points">
              <mxPoint x="340.5" y="610" />
              <mxPoint x="381" y="610" />
            </Array>
          </mxGeometry>
        </mxCell>
        <mxCell id="BzpWnOmyiMtVF2IAb3Cy-43" value="arr[0]" style="text;html=1;align=center;verticalAlign=middle;resizable=0;points=[];autosize=1;strokeColor=none;fillColor=none;" vertex="1" parent="1">
          <mxGeometry x="236" y="800" width="50" height="30" as="geometry" />
        </mxCell>
        <mxCell id="BzpWnOmyiMtVF2IAb3Cy-44" value="-22000" style="whiteSpace=wrap;html=1;aspect=fixed;fillColor=#00FF00;" vertex="1" parent="1">
          <mxGeometry x="241" y="760" width="40" height="40" as="geometry" />
        </mxCell>
        <mxCell id="BzpWnOmyiMtVF2IAb3Cy-45" value="-20000" style="whiteSpace=wrap;html=1;aspect=fixed;fillColor=#00FF00;" vertex="1" parent="1">
          <mxGeometry x="281" y="760" width="40" height="40" as="geometry" />
        </mxCell>
        <mxCell id="BzpWnOmyiMtVF2IAb3Cy-46" value="1" style="whiteSpace=wrap;html=1;aspect=fixed;fillColor=#00FF00;" vertex="1" parent="1">
          <mxGeometry x="321" y="760" width="40" height="40" as="geometry" />
        </mxCell>
        <mxCell id="BzpWnOmyiMtVF2IAb3Cy-47" value="4" style="whiteSpace=wrap;html=1;aspect=fixed;fillColor=#00FF00;" vertex="1" parent="1">
          <mxGeometry x="361" y="760" width="40" height="40" as="geometry" />
        </mxCell>
        <mxCell id="BzpWnOmyiMtVF2IAb3Cy-48" value="arr[1]" style="text;html=1;align=center;verticalAlign=middle;resizable=0;points=[];autosize=1;strokeColor=none;fillColor=none;" vertex="1" parent="1">
          <mxGeometry x="276" y="800" width="50" height="30" as="geometry" />
        </mxCell>
        <mxCell id="BzpWnOmyiMtVF2IAb3Cy-49" value="arr[2]" style="text;html=1;align=center;verticalAlign=middle;resizable=0;points=[];autosize=1;strokeColor=none;fillColor=none;" vertex="1" parent="1">
          <mxGeometry x="316" y="800" width="50" height="30" as="geometry" />
        </mxCell>
        <mxCell id="BzpWnOmyiMtVF2IAb3Cy-50" value="arr[3]" style="text;html=1;align=center;verticalAlign=middle;resizable=0;points=[];autosize=1;strokeColor=none;fillColor=none;" vertex="1" parent="1">
          <mxGeometry x="356" y="800" width="50" height="30" as="geometry" />
        </mxCell>
        <mxCell id="BzpWnOmyiMtVF2IAb3Cy-51" value="" style="endArrow=classic;html=1;rounded=0;dashed=1;" edge="1" parent="1">
          <mxGeometry width="50" height="50" relative="1" as="geometry">
            <mxPoint x="300" y="370" as="sourcePoint" />
            <mxPoint x="300" y="400" as="targetPoint" />
          </mxGeometry>
        </mxCell>
        <mxCell id="BzpWnOmyiMtVF2IAb3Cy-53" value="" style="endArrow=classic;html=1;rounded=0;dashed=1;" edge="1" parent="1">
          <mxGeometry width="50" height="50" relative="1" as="geometry">
            <mxPoint x="340.92" y="370" as="sourcePoint" />
            <mxPoint x="340.92" y="400" as="targetPoint" />
          </mxGeometry>
        </mxCell>
        <mxCell id="BzpWnOmyiMtVF2IAb3Cy-54" value="Can we reuse the code from ArrMin implemented earlier?" style="text;html=1;align=left;verticalAlign=middle;resizable=0;points=[];autosize=1;strokeColor=none;fillColor=none;" vertex="1" parent="1">
          <mxGeometry x="80" y="1080" width="330" height="30" as="geometry" />
        </mxCell>
        <mxCell id="BzpWnOmyiMtVF2IAb3Cy-55" value="1000" style="text;html=1;align=center;verticalAlign=middle;resizable=0;points=[];autosize=1;strokeColor=none;fillColor=none;" vertex="1" parent="1">
          <mxGeometry x="231" y="460" width="50" height="30" as="geometry" />
        </mxCell>
        <mxCell id="BzpWnOmyiMtVF2IAb3Cy-56" value="R3" style="text;html=1;align=center;verticalAlign=middle;resizable=0;points=[];autosize=1;strokeColor=none;fillColor=none;" vertex="1" parent="1">
          <mxGeometry x="290" y="365" width="40" height="30" as="geometry" />
        </mxCell>
        <mxCell id="BzpWnOmyiMtVF2IAb3Cy-57" value="R1" style="text;html=1;align=center;verticalAlign=middle;resizable=0;points=[];autosize=1;strokeColor=none;fillColor=none;" vertex="1" parent="1">
          <mxGeometry x="250" y="365" width="40" height="30" as="geometry" />
        </mxCell>
      </root>
    </mxGraphModel>
  </diagram>
</mxfile>
